Coordinates
version=1
nRows=14
nColumns=24
inDegrees=yes

Units are S.I. units (second, meters, Newtons, ...)
If the header above contains a line with 'inDegrees', this indicates whether rotational values are in degrees (yes) or radians (no).

endheader
time	pelvis_tilt	pelvis_list	pelvis_rotation	pelvis_tx	pelvis_ty	pelvis_tz	hip_flexion_r	hip_adduction_r	hip_rotation_r	knee_angle_r	ankle_angle_r	subtalar_angle_r	mtp_angle_r	hip_flexion_l	hip_adduction_l	hip_rotation_l	knee_angle_l	ankle_angle_l	subtalar_angle_l	mtp_angle_l	lumbar_extension	lumbar_bending	lumbar_rotation
      1.36000000	     44.87397910	      3.07455504	     -1.23821193	      0.04657011	      0.55021409	     -0.02830504	     46.99794013	     -5.20997530	      5.37513879	   -111.54826345	     20.97743314	      0.00000000	      0.00000000	     46.69273766	     -2.14040799	     -4.87820123	   -111.54094513	     18.35862053	      0.00000000	      0.00000000	    -55.29587510	     -3.97951715	     -2.08674119
      1.37000000	     44.87211320	      3.07513421	     -1.23854318	      0.04662295	      0.55022034	     -0.02829216	     46.99664270	     -5.21070841	      5.37489963	   -111.54927206	     20.97705421	      0.00000000	      0.00000000	     46.69175508	     -2.14012331	     -4.87805089	   -111.54168747	     18.35874329	      0.00000000	      0.00000000	    -55.29500733	     -3.97918761	     -2.08696603
      1.38000000	     44.86786316	      3.07602658	     -1.23975858	      0.04669594	      0.55024963	     -0.02828265	     46.99389873	     -5.21223954	      5.37441790	   -111.55182044	     20.97639006	      0.00000000	      0.00000000	     46.68944361	     -2.13950341	     -4.87760361	   -111.54373860	     18.35899721	      0.00000000	      0.00000000	    -55.29289416	     -3.97843542	     -2.08751153
      1.39000000	     44.86761930	      3.07603461	     -1.23995002	      0.04671442	      0.55025405	     -0.02828172	     46.99365891	     -5.21245977	      5.37436452	   -111.55213917	     20.97631446	      0.00000000	      0.00000000	     46.68920972	     -2.13935488	     -4.87756566	   -111.54399754	     18.35905502	      0.00000000	      0.00000000	    -55.29250046	     -3.97829700	     -2.08761543
      1.40000000	     44.87879845	      3.09270517	     -1.22561469	      0.04688609	      0.55024540	     -0.02834433	     46.98183095	     -5.25507216	      5.36764973	   -111.58803969	     20.96591038	      0.00000000	      0.00000000	     46.67268685	     -2.10322106	     -4.87810386	   -111.57124928	     18.39707233	      0.00000000	      0.00000000	    -55.15699174	     -3.92889395	     -2.13209820
      1.41000000	     44.87875066	      3.09245709	     -1.22565950	      0.04689710	      0.55024156	     -0.02835139	     46.98192427	     -5.25521398	      5.36775478	   -111.58805574	     20.96592856	      0.00000000	      0.00000000	     46.67270770	     -2.10312934	     -4.87804069	   -111.57120192	     18.39709978	      0.00000000	      0.00000000	    -55.15694219	     -3.92885249	     -2.13217300
      1.42000000	     44.87859050	      3.09206783	     -1.22579396	      0.04690823	      0.55023197	     -0.02836125	     46.98192423	     -5.25534782	      5.36786495	   -111.58816559	     20.96593241	      0.00000000	      0.00000000	     46.67270760	     -2.10293220	     -4.87801669	   -111.57122153	     18.39712343	      0.00000000	      0.00000000	    -55.15687519	     -3.92876913	     -2.13226489
      1.43000000	     44.87823556	      3.08837091	     -1.22685169	      0.04692205	      0.55021040	     -0.02840812	     46.98211627	     -5.25624576	      5.36880644	   -111.58939420	     20.96595424	      0.00000000	      0.00000000	     46.67325430	     -2.10101559	     -4.87826270	   -111.57187351	     18.39733211	      0.00000000	      0.00000000	    -55.15641787	     -3.92800017	     -2.13289772
      1.44000000	     44.87932921	      3.08489842	     -1.22803195	      0.04689895	      0.55019398	     -0.02845676	     46.98298781	     -5.25675405	      5.36964086	   -111.59061448	     20.96595744	      0.00000000	      0.00000000	     46.67459293	     -2.09871985	     -4.87844001	   -111.57302303	     18.39767722	      0.00000000	      0.00000000	    -55.15593485	     -3.92675081	     -2.13367841
      1.45000000	     44.87956471	      3.08446593	     -1.22821858	      0.04689465	      0.55017793	     -0.02846938	     46.98312837	     -5.25675686	      5.36973324	   -111.59075837	     20.96593851	      0.00000000	      0.00000000	     46.67482783	     -2.09835309	     -4.87844823	   -111.57321033	     18.39773252	      0.00000000	      0.00000000	    -55.15588272	     -3.92649733	     -2.13381101
      1.46000000	     44.82995029	      3.05055447	     -1.17473460	      0.04691364	      0.54991368	     -0.02871284	     47.06127184	     -5.26977047	      5.33297886	   -111.61569041	     20.93142870	      0.00000000	      0.00000000	     46.77941518	     -2.05810126	     -4.82231358	   -111.62523088	     18.42612703	      0.00000000	      0.00000000	    -55.13437921	     -3.74494959	     -2.25888873
      1.47000000	     44.83002342	      3.05077572	     -1.17515889	      0.04689087	      0.54990330	     -0.02873699	     47.06105806	     -5.26985574	      5.33287501	   -111.61585967	     20.93141366	      0.00000000	      0.00000000	     46.77976570	     -2.05825462	     -4.82194576	   -111.62511634	     18.42612078	      0.00000000	      0.00000000	    -55.13431359	     -3.74497051	     -2.25900067
      1.48000000	     44.84010494	      3.04332230	     -1.17910946	      0.04679502	      0.54982898	     -0.02881130	     47.06412690	     -5.27260311	      5.33390927	   -111.61509419	     20.93133599	      0.00000000	      0.00000000	     46.78755158	     -2.05601146	     -4.81971547	   -111.62330919	     18.42565629	      0.00000000	      0.00000000	    -55.13426557	     -3.74427902	     -2.26122895
      1.49000000	     44.83973770	      3.04347566	     -1.17917300	      0.04676035	      0.54981149	     -0.02883601	     47.06412130	     -5.27253241	      5.33381733	   -111.61515028	     20.93129769	      0.00000000	      0.00000000	     46.78741035	     -2.05605625	     -4.81953589	   -111.62356596	     18.42558349	      0.00000000	      0.00000000	    -55.13431941	     -3.74419644	     -2.26134490
